<svg xmlns="http://www.w3.org/2000/svg" width="1200" height="440" viewBox="0 0 1200 440" role="img">
<rect x="0" y="0" width="1200" height="440" rx="0" fill="#fbfbf9"/>
<rect x="152" y="92" width="3" height="46" rx="1.5" fill="#216e39"/>
<text x="170" y="132" font-family="-apple-system, BlinkMacSystemFont, Segoe UI, Inter, Roboto, Helvetica, Arial, sans-serif" font-size="46" fill="#1a1a19" font-weight="700" letter-spacing="-1.2">OpenHabits</text>
<text x="152" y="170" font-family="-apple-system, BlinkMacSystemFont, Segoe UI, Inter, Roboto, Helvetica, Arial, sans-serif" font-size="17" fill="#6f6f68" font-weight="400">A habit tracker that draws your year as a contribution grid.</text>
<rect x="152" y="186" width="106.1" height="30" rx="15" fill="#ffffff" stroke="#e5e5df" stroke-width="1"/><text x="166" y="205" font-family="-apple-system, BlinkMacSystemFont, Segoe UI, Inter, Roboto, Helvetica, Arial, sans-serif" font-size="12.5" fill="#6f6f68" font-weight="500">Local-first</text><rect x="268.1" y="186" width="120.3" height="30" rx="15" fill="#ffffff" stroke="#e5e5df" stroke-width="1"/><text x="282.1" y="205" font-family="-apple-system, BlinkMacSystemFont, Segoe UI, Inter, Roboto, Helvetica, Arial, sans-serif" font-size="12.5" fill="#6f6f68" font-weight="500">Works offline</text><rect x="398.40000000000003" y="186" width="148.7" height="30" rx="15" fill="#ffffff" stroke="#e5e5df" stroke-width="1"/><text x="412.40000000000003" y="205" font-family="-apple-system, BlinkMacSystemFont, Segoe UI, Inter, Roboto, Helvetica, Arial, sans-serif" font-size="12.5" fill="#6f6f68" font-weight="500">No account needed</text><rect x="557.1" y="186" width="113.19999999999999" height="30" rx="15" fill="#ffffff" stroke="#e5e5df" stroke-width="1"/><text x="571.1" y="205" font-family="-apple-system, BlinkMacSystemFont, Segoe UI, Inter, Roboto, Helvetica, Arial, sans-serif" font-size="12.5" fill="#6f6f68" font-weight="500">MIT licensed</text>
<text x="153" y="238" font-family="ui-monospace, SFMono-Regular, Menlo, Consolas, monospace" font-size="11" fill="#6f6f68" font-weight="400">Oct</text><text x="228" y="238" font-family="ui-monospace, SFMono-Regular, Menlo, Consolas, monospace" font-size="11" fill="#6f6f68" font-weight="400">Nov</text><text x="303" y="238" font-family="ui-monospace, SFMono-Regular, Menlo, Consolas, monospace" font-size="11" fill="#6f6f68" font-weight="400">Dec</text><text x="377" y="238" font-family="ui-monospace, SFMono-Regular, Menlo, Consolas, monospace" font-size="11" fill="#6f6f68" font-weight="400">Jan</text><text x="452" y="238" font-family="ui-monospace, SFMono-Regular, Menlo, Consolas, monospace" font-size="11" fill="#6f6f68" font-weight="400">Feb</text><text x="527" y="238" font-family="ui-monospace, SFMono-Regular, Menlo, Consolas, monospace" font-size="11" fill="#6f6f68" font-weight="400">Mar</text><text x="602" y="238" font-family="ui-monospace, SFMono-Regular, Menlo, Consolas, monospace" font-size="11" fill="#6f6f68" font-weight="400">Apr</text><text x="676" y="238" font-family="ui-monospace, SFMono-Regular, Menlo, Consolas, monospace" font-size="11" fill="#6f6f68" font-weight="400">May</text><text x="751" y="238" font-family="ui-monospace, SFMono-Regular, Menlo, Consolas, monospace" font-size="11" fill="#6f6f68" font-weight="400">Jun</text><text x="826" y="238" font-family="ui-monospace, SFMono-Regular, Menlo, Consolas, monospace" font-size="11" fill="#6f6f68" font-weight="400">Jul</text><text x="901" y="238" font-family="ui-monospace, SFMono-Regular, Menlo, Consolas, monospace" font-size="11" fill="#6f6f68" font-weight="400">Aug</text><text x="975" y="238" font-family="ui-monospace, SFMono-Regular, Menlo, Consolas, monospace" font-size="11" fill="#6f6f68" font-weight="400">Sep</text>
<rect x="152" y="250" width="13" height="13" rx="3" fill="#ebedf0" stroke="#e5e5df" stroke-width="1"/><rect x="152" y="267" width="13" height="13" rx="3" fill="#9be9a8"/><rect x="152" y="284" width="13" height="13" rx="3" fill="#9be9a8"/><rect x="152" y="301" width="13" height="13" rx="3" fill="#9be9a8"/><rect x="152" y="318" width="13" height="13" rx="3" fill="#9be9a8"/><rect x="152" y="335" width="13" height="13" rx="3" fill="#ebedf0" stroke="#e5e5df" stroke-width="1"/><rect x="152" y="352" width="13" height="13" rx="3" fill="#ebedf0" stroke="#e5e5df" stroke-width="1"/><rect x="169" y="250" width="13" height="13" rx="3" fill="#9be9a8"/><rect x="169" y="267" width="13" height="13" rx="3" fill="#ebedf0" stroke="#e5e5df" stroke-width="1"/><rect x="169" y="284" width="13" height="13" rx="3" fill="#ebedf0" stroke="#e5e5df" stroke-width="1"/><rect x="169" y="301" width="13" height="13" rx="3" fill="#9be9a8"/><rect x="169" y="318" width="13" height="13" rx="3" fill="#9be9a8"/><rect x="169" y="335" width="13" height="13" rx="3" fill="#ebedf0" stroke="#e5e5df" stroke-width="1"/><rect x="169" y="352" width="13" height="13" rx="3" fill="#ebedf0" stroke="#e5e5df" stroke-width="1"/><rect x="186" y="250" width="13" height="13" rx="3" fill="#9be9a8"/><rect x="186" y="267" width="13" height="13" rx="3" fill="#ebedf0" stroke="#e5e5df" stroke-width="1"/><rect x="186" y="284" width="13" height="13" rx="3" fill="#9be9a8"/><rect x="186" y="301" width="13" height="13" rx="3" fill="#9be9a8"/><rect x="186" y="318" width="13" height="13" rx="3" fill="#ebedf0" stroke="#e5e5df" stroke-width="1"/><rect x="186" y="335" width="13" height="13" rx="3" fill="#ebedf0" stroke="#e5e5df" stroke-width="1"/><rect x="186" y="352" width="13" height="13" rx="3" fill="#9be9a8"/><rect x="203" y="250" width="13" height="13" rx="3" fill="#9be9a8"/><rect x="203" y="267" width="13" height="13" rx="3" fill="#40c463"/><rect x="203" y="284" width="13" height="13" rx="3" fill="#ebedf0" stroke="#e5e5df" stroke-width="1"/><rect x="203" y="301" width="13" height="13" rx="3" fill="#ebedf0" stroke="#e5e5df" stroke-width="1"/><rect x="203" y="318" width="13" height="13" rx="3" fill="#ebedf0" stroke="#e5e5df" stroke-width="1"/><rect x="203" y="335" width="13" height="13" rx="3" fill="#9be9a8"/><rect x="203" y="352" width="13" height="13" rx="3" fill="#9be9a8"/><rect x="220" y="250" width="13" height="13" rx="3" fill="#9be9a8"/><rect x="220" y="267" width="13" height="13" rx="3" fill="#9be9a8"/><rect x="220" y="284" width="13" height="13" rx="3" fill="#40c463"/><rect x="220" y="301" width="13" height="13" rx="3" fill="#9be9a8"/><rect x="220" y="318" width="13" height="13" rx="3" fill="#9be9a8"/><rect x="220" y="335" width="13" height="13" rx="3" fill="#9be9a8"/><rect x="220" y="352" width="13" height="13" rx="3" fill="#9be9a8"/><rect x="237" y="250" width="13" height="13" rx="3" fill="#ebedf0" stroke="#e5e5df" stroke-width="1"/><rect x="237" y="267" width="13" height="13" rx="3" fill="#9be9a8"/><rect x="237" y="284" width="13" height="13" rx="3" fill="#9be9a8"/><rect x="237" y="301" width="13" height="13" rx="3" fill="#40c463"/><rect x="237" y="318" width="13" height="13" rx="3" fill="#ebedf0" stroke="#e5e5df" stroke-width="1"/><rect x="237" y="335" width="13" height="13" rx="3" fill="#ebedf0" stroke="#e5e5df" stroke-width="1"/><rect x="237" y="352" width="13" height="13" rx="3" fill="#9be9a8"/><rect x="254" y="250" width="13" height="13" rx="3" fill="#9be9a8"/><rect x="254" y="267" width="13" height="13" rx="3" fill="#ebedf0" stroke="#e5e5df" stroke-width="1"/><rect x="254" y="284" width="13" height="13" rx="3" fill="#9be9a8"/><rect x="254" y="301" width="13" height="13" rx="3" fill="#9be9a8"/><rect x="254" y="318" width="13" height="13" rx="3" fill="#9be9a8"/><rect x="254" y="335" width="13" height="13" rx="3" fill="#ebedf0" stroke="#e5e5df" stroke-width="1"/><rect x="254" y="352" width="13" height="13" rx="3" fill="#9be9a8"/><rect x="271" y="250" width="13" height="13" rx="3" fill="#9be9a8"/><rect x="271" y="267" width="13" height="13" rx="3" fill="#9be9a8"/><rect x="271" y="284" width="13" height="13" rx="3" fill="#ebedf0" stroke="#e5e5df" stroke-width="1"/><rect x="271" y="301" width="13" height="13" rx="3" fill="#9be9a8"/><rect x="271" y="318" width="13" height="13" rx="3" fill="#40c463"/><rect x="271" y="335" width="13" height="13" rx="3" fill="#9be9a8"/><rect x="271" y="352" width="13" height="13" rx="3" fill="#9be9a8"/><rect x="288" y="250" width="13" height="13" rx="3" fill="#ebedf0" stroke="#e5e5df" stroke-width="1"/><rect x="288" y="267" width="13" height="13" rx="3" fill="#9be9a8"/><rect x="288" y="284" width="13" height="13" rx="3" fill="#40c463"/><rect x="288" y="301" width="13" height="13" rx="3" fill="#9be9a8"/><rect x="288" y="318" width="13" height="13" rx="3" fill="#ebedf0" stroke="#e5e5df" stroke-width="1"/><rect x="288" y="335" width="13" height="13" rx="3" fill="#9be9a8"/><rect x="288" y="352" width="13" height="13" rx="3" fill="#ebedf0" stroke="#e5e5df" stroke-width="1"/><rect x="305" y="250" width="13" height="13" rx="3" fill="#ebedf0" stroke="#e5e5df" stroke-width="1"/><rect x="305" y="267" width="13" height="13" rx="3" fill="#9be9a8"/><rect x="305" y="284" width="13" height="13" rx="3" fill="#40c463"/><rect x="305" y="301" width="13" height="13" rx="3" fill="#40c463"/><rect x="305" y="318" width="13" height="13" rx="3" fill="#9be9a8"/><rect x="305" y="335" width="13" height="13" rx="3" fill="#ebedf0" stroke="#e5e5df" stroke-width="1"/><rect x="305" y="352" width="13" height="13" rx="3" fill="#9be9a8"/><rect x="322" y="250" width="13" height="13" rx="3" fill="#40c463"/><rect x="322" y="267" width="13" height="13" rx="3" fill="#40c463"/><rect x="322" y="284" width="13" height="13" rx="3" fill="#ebedf0" stroke="#e5e5df" stroke-width="1"/><rect x="322" y="301" width="13" height="13" rx="3" fill="#9be9a8"/><rect x="322" y="318" width="13" height="13" rx="3" fill="#40c463"/><rect x="322" y="335" width="13" height="13" rx="3" fill="#ebedf0" stroke="#e5e5df" stroke-width="1"/><rect x="322" y="352" width="13" height="13" rx="3" fill="#ebedf0" stroke="#e5e5df" stroke-width="1"/><rect x="339" y="250" width="13" height="13" rx="3" fill="#40c463"/><rect x="339" y="267" width="13" height="13" rx="3" fill="#ebedf0" stroke="#e5e5df" stroke-width="1"/><rect x="339" y="284" width="13" height="13" rx="3" fill="#ebedf0" stroke="#e5e5df" stroke-width="1"/><rect x="339" y="301" width="13" height="13" rx="3" fill="#9be9a8"/><rect x="339" y="318" width="13" height="13" rx="3" fill="#9be9a8"/><rect x="339" y="335" width="13" height="13" rx="3" fill="#9be9a8"/><rect x="339" y="352" width="13" height="13" rx="3" fill="#9be9a8"/><rect x="356" y="250" width="13" height="13" rx="3" fill="#ebedf0" stroke="#e5e5df" stroke-width="1"/><rect x="356" y="267" width="13" height="13" rx="3" fill="#9be9a8"/><rect x="356" y="284" width="13" height="13" rx="3" fill="#40c463"/><rect x="356" y="301" width="13" height="13" rx="3" fill="#40c463"/><rect x="356" y="318" width="13" height="13" rx="3" fill="#40c463"/><rect x="356" y="335" width="13" height="13" rx="3" fill="#ebedf0" stroke="#e5e5df" stroke-width="1"/><rect x="356" y="352" width="13" height="13" rx="3" fill="#ebedf0" stroke="#e5e5df" stroke-width="1"/><rect x="373" y="250" width="13" height="13" rx="3" fill="#40c463"/><rect x="373" y="267" width="13" height="13" rx="3" fill="#9be9a8"/><rect x="373" y="284" width="13" height="13" rx="3" fill="#40c463"/><rect x="373" y="301" width="13" height="13" rx="3" fill="#9be9a8"/><rect x="373" y="318" width="13" height="13" rx="3" fill="#ebedf0" stroke="#e5e5df" stroke-width="1"/><rect x="373" y="335" width="13" height="13" rx="3" fill="#ebedf0" stroke="#e5e5df" stroke-width="1"/><rect x="373" y="352" width="13" height="13" rx="3" fill="#ebedf0" stroke="#e5e5df" stroke-width="1"/><rect x="390" y="250" width="13" height="13" rx="3" fill="#40c463"/><rect x="390" y="267" width="13" height="13" rx="3" fill="#ebedf0" stroke="#e5e5df" stroke-width="1"/><rect x="390" y="284" width="13" height="13" rx="3" fill="#ebedf0" stroke="#e5e5df" stroke-width="1"/><rect x="390" y="301" width="13" height="13" rx="3" fill="#ebedf0" stroke="#e5e5df" stroke-width="1"/><rect x="390" y="318" width="13" height="13" rx="3" fill="#ebedf0" stroke="#e5e5df" stroke-width="1"/><rect x="390" y="335" width="13" height="13" rx="3" fill="#9be9a8"/><rect x="390" y="352" width="13" height="13" rx="3" fill="#9be9a8"/><rect x="407" y="250" width="13" height="13" rx="3" fill="#ebedf0" stroke="#e5e5df" stroke-width="1"/><rect x="407" y="267" width="13" height="13" rx="3" fill="#40c463"/><rect x="407" y="284" width="13" height="13" rx="3" fill="#30a14e"/><rect x="407" y="301" width="13" height="13" rx="3" fill="#ebedf0" stroke="#e5e5df" stroke-width="1"/><rect x="407" y="318" width="13" height="13" rx="3" fill="#40c463"/><rect x="407" y="335" width="13" height="13" rx="3" fill="#9be9a8"/><rect x="407" y="352" width="13" height="13" rx="3" fill="#9be9a8"/><rect x="424" y="250" width="13" height="13" rx="3" fill="#9be9a8"/><rect x="424" y="267" width="13" height="13" rx="3" fill="#40c463"/><rect x="424" y="284" width="13" height="13" rx="3" fill="#9be9a8"/><rect x="424" y="301" width="13" height="13" rx="3" fill="#ebedf0" stroke="#e5e5df" stroke-width="1"/><rect x="424" y="318" width="13" height="13" rx="3" fill="#40c463"/><rect x="424" y="335" width="13" height="13" rx="3" fill="#9be9a8"/><rect x="424" y="352" width="13" height="13" rx="3" fill="#9be9a8"/><rect x="441" y="250" width="13" height="13" rx="3" fill="#9be9a8"/><rect x="441" y="267" width="13" height="13" rx="3" fill="#30a14e"/><rect x="441" y="284" width="13" height="13" rx="3" fill="#40c463"/><rect x="441" y="301" width="13" height="13" rx="3" fill="#9be9a8"/><rect x="441" y="318" width="13" height="13" rx="3" fill="#40c463"/><rect x="441" y="335" width="13" height="13" rx="3" fill="#9be9a8"/><rect x="441" y="352" width="13" height="13" rx="3" fill="#ebedf0" stroke="#e5e5df" stroke-width="1"/><rect x="458" y="250" width="13" height="13" rx="3" fill="#ebedf0" stroke="#e5e5df" stroke-width="1"/><rect x="458" y="267" width="13" height="13" rx="3" fill="#ebedf0" stroke="#e5e5df" stroke-width="1"/><rect x="458" y="284" width="13" height="13" rx="3" fill="#ebedf0" stroke="#e5e5df" stroke-width="1"/><rect x="458" y="301" width="13" height="13" rx="3" fill="#ebedf0" stroke="#e5e5df" stroke-width="1"/><rect x="458" y="318" width="13" height="13" rx="3" fill="#ebedf0" stroke="#e5e5df" stroke-width="1"/><rect x="458" y="335" width="13" height="13" rx="3" fill="#ebedf0" stroke="#e5e5df" stroke-width="1"/><rect x="458" y="352" width="13" height="13" rx="3" fill="#ebedf0" stroke="#e5e5df" stroke-width="1"/><rect x="475" y="250" width="13" height="13" rx="3" fill="#ebedf0" stroke="#e5e5df" stroke-width="1"/><rect x="475" y="267" width="13" height="13" rx="3" fill="#ebedf0" stroke="#e5e5df" stroke-width="1"/><rect x="475" y="284" width="13" height="13" rx="3" fill="#ebedf0" stroke="#e5e5df" stroke-width="1"/><rect x="475" y="301" width="13" height="13" rx="3" fill="#ebedf0" stroke="#e5e5df" stroke-width="1"/><rect x="475" y="318" width="13" height="13" rx="3" fill="#ebedf0" stroke="#e5e5df" stroke-width="1"/><rect x="475" y="335" width="13" height="13" rx="3" fill="#ebedf0" stroke="#e5e5df" stroke-width="1"/><rect x="475" y="352" width="13" height="13" rx="3" fill="#ebedf0" stroke="#e5e5df" stroke-width="1"/><rect x="492" y="250" width="13" height="13" rx="3" fill="#9be9a8"/><rect x="492" y="267" width="13" height="13" rx="3" fill="#40c463"/><rect x="492" y="284" width="13" height="13" rx="3" fill="#40c463"/><rect x="492" y="301" width="13" height="13" rx="3" fill="#30a14e"/><rect x="492" y="318" width="13" height="13" rx="3" fill="#30a14e"/><rect x="492" y="335" width="13" height="13" rx="3" fill="#9be9a8"/><rect x="492" y="352" width="13" height="13" rx="3" fill="#9be9a8"/><rect x="509" y="250" width="13" height="13" rx="3" fill="#40c463"/><rect x="509" y="267" width="13" height="13" rx="3" fill="#ebedf0" stroke="#e5e5df" stroke-width="1"/><rect x="509" y="284" width="13" height="13" rx="3" fill="#40c463"/><rect x="509" y="301" width="13" height="13" rx="3" fill="#40c463"/><rect x="509" y="318" width="13" height="13" rx="3" fill="#9be9a8"/><rect x="509" y="335" width="13" height="13" rx="3" fill="#ebedf0" stroke="#e5e5df" stroke-width="1"/><rect x="509" y="352" width="13" height="13" rx="3" fill="#9be9a8"/><rect x="526" y="250" width="13" height="13" rx="3" fill="#30a14e"/><rect x="526" y="267" width="13" height="13" rx="3" fill="#30a14e"/><rect x="526" y="284" width="13" height="13" rx="3" fill="#9be9a8"/><rect x="526" y="301" width="13" height="13" rx="3" fill="#ebedf0" stroke="#e5e5df" stroke-width="1"/><rect x="526" y="318" width="13" height="13" rx="3" fill="#30a14e"/><rect x="526" y="335" width="13" height="13" rx="3" fill="#9be9a8"/><rect x="526" y="352" width="13" height="13" rx="3" fill="#9be9a8"/><rect x="543" y="250" width="13" height="13" rx="3" fill="#9be9a8"/><rect x="543" y="267" width="13" height="13" rx="3" fill="#9be9a8"/><rect x="543" y="284" width="13" height="13" rx="3" fill="#40c463"/><rect x="543" y="301" width="13" height="13" rx="3" fill="#30a14e"/><rect x="543" y="318" width="13" height="13" rx="3" fill="#40c463"/><rect x="543" y="335" width="13" height="13" rx="3" fill="#9be9a8"/><rect x="543" y="352" width="13" height="13" rx="3" fill="#9be9a8"/><rect x="560" y="250" width="13" height="13" rx="3" fill="#ebedf0" stroke="#e5e5df" stroke-width="1"/><rect x="560" y="267" width="13" height="13" rx="3" fill="#9be9a8"/><rect x="560" y="284" width="13" height="13" rx="3" fill="#30a14e"/><rect x="560" y="301" width="13" height="13" rx="3" fill="#30a14e"/><rect x="560" y="318" width="13" height="13" rx="3" fill="#40c463"/><rect x="560" y="335" width="13" height="13" rx="3" fill="#40c463"/><rect x="560" y="352" width="13" height="13" rx="3" fill="#40c463"/><rect x="577" y="250" width="13" height="13" rx="3" fill="#40c463"/><rect x="577" y="267" width="13" height="13" rx="3" fill="#30a14e"/><rect x="577" y="284" width="13" height="13" rx="3" fill="#9be9a8"/><rect x="577" y="301" width="13" height="13" rx="3" fill="#40c463"/><rect x="577" y="318" width="13" height="13" rx="3" fill="#ebedf0" stroke="#e5e5df" stroke-width="1"/><rect x="577" y="335" width="13" height="13" rx="3" fill="#9be9a8"/><rect x="577" y="352" width="13" height="13" rx="3" fill="#40c463"/><rect x="594" y="250" width="13" height="13" rx="3" fill="#30a14e"/><rect x="594" y="267" width="13" height="13" rx="3" fill="#9be9a8"/><rect x="594" y="284" width="13" height="13" rx="3" fill="#40c463"/><rect x="594" y="301" width="13" height="13" rx="3" fill="#40c463"/><rect x="594" y="318" width="13" height="13" rx="3" fill="#30a14e"/><rect x="594" y="335" width="13" height="13" rx="3" fill="#ebedf0" stroke="#e5e5df" stroke-width="1"/><rect x="594" y="352" width="13" height="13" rx="3" fill="#ebedf0" stroke="#e5e5df" stroke-width="1"/><rect x="611" y="250" width="13" height="13" rx="3" fill="#40c463"/><rect x="611" y="267" width="13" height="13" rx="3" fill="#30a14e"/><rect x="611" y="284" width="13" height="13" rx="3" fill="#9be9a8"/><rect x="611" y="301" width="13" height="13" rx="3" fill="#ebedf0" stroke="#e5e5df" stroke-width="1"/><rect x="611" y="318" width="13" height="13" rx="3" fill="#40c463"/><rect x="611" y="335" width="13" height="13" rx="3" fill="#40c463"/><rect x="611" y="352" width="13" height="13" rx="3" fill="#ebedf0" stroke="#e5e5df" stroke-width="1"/><rect x="628" y="250" width="13" height="13" rx="3" fill="#9be9a8"/><rect x="628" y="267" width="13" height="13" rx="3" fill="#40c463"/><rect x="628" y="284" width="13" height="13" rx="3" fill="#40c463"/><rect x="628" y="301" width="13" height="13" rx="3" fill="#ebedf0" stroke="#e5e5df" stroke-width="1"/><rect x="628" y="318" width="13" height="13" rx="3" fill="#9be9a8"/><rect x="628" y="335" width="13" height="13" rx="3" fill="#40c463"/><rect x="628" y="352" width="13" height="13" rx="3" fill="#9be9a8"/><rect x="645" y="250" width="13" height="13" rx="3" fill="#9be9a8"/><rect x="645" y="267" width="13" height="13" rx="3" fill="#ebedf0" stroke="#e5e5df" stroke-width="1"/><rect x="645" y="284" width="13" height="13" rx="3" fill="#30a14e"/><rect x="645" y="301" width="13" height="13" rx="3" fill="#30a14e"/><rect x="645" y="318" width="13" height="13" rx="3" fill="#30a14e"/><rect x="645" y="335" width="13" height="13" rx="3" fill="#ebedf0" stroke="#e5e5df" stroke-width="1"/><rect x="645" y="352" width="13" height="13" rx="3" fill="#9be9a8"/><rect x="662" y="250" width="13" height="13" rx="3" fill="#9be9a8"/><rect x="662" y="267" width="13" height="13" rx="3" fill="#40c463"/><rect x="662" y="284" width="13" height="13" rx="3" fill="#9be9a8"/><rect x="662" y="301" width="13" height="13" rx="3" fill="#30a14e"/><rect x="662" y="318" width="13" height="13" rx="3" fill="#40c463"/><rect x="662" y="335" width="13" height="13" rx="3" fill="#9be9a8"/><rect x="662" y="352" width="13" height="13" rx="3" fill="#40c463"/><rect x="679" y="250" width="13" height="13" rx="3" fill="#30a14e"/><rect x="679" y="267" width="13" height="13" rx="3" fill="#9be9a8"/><rect x="679" y="284" width="13" height="13" rx="3" fill="#ebedf0" stroke="#e5e5df" stroke-width="1"/><rect x="679" y="301" width="13" height="13" rx="3" fill="#40c463"/><rect x="679" y="318" width="13" height="13" rx="3" fill="#40c463"/><rect x="679" y="335" width="13" height="13" rx="3" fill="#9be9a8"/><rect x="679" y="352" width="13" height="13" rx="3" fill="#ebedf0" stroke="#e5e5df" stroke-width="1"/><rect x="696" y="250" width="13" height="13" rx="3" fill="#9be9a8"/><rect x="696" y="267" width="13" height="13" rx="3" fill="#ebedf0" stroke="#e5e5df" stroke-width="1"/><rect x="696" y="284" width="13" height="13" rx="3" fill="#40c463"/><rect x="696" y="301" width="13" height="13" rx="3" fill="#ebedf0" stroke="#e5e5df" stroke-width="1"/><rect x="696" y="318" width="13" height="13" rx="3" fill="#40c463"/><rect x="696" y="335" width="13" height="13" rx="3" fill="#40c463"/><rect x="696" y="352" width="13" height="13" rx="3" fill="#9be9a8"/><rect x="713" y="250" width="13" height="13" rx="3" fill="#30a14e"/><rect x="713" y="267" width="13" height="13" rx="3" fill="#ebedf0" stroke="#e5e5df" stroke-width="1"/><rect x="713" y="284" width="13" height="13" rx="3" fill="#9be9a8"/><rect x="713" y="301" width="13" height="13" rx="3" fill="#ebedf0" stroke="#e5e5df" stroke-width="1"/><rect x="713" y="318" width="13" height="13" rx="3" fill="#30a14e"/><rect x="713" y="335" width="13" height="13" rx="3" fill="#9be9a8"/><rect x="713" y="352" width="13" height="13" rx="3" fill="#40c463"/><rect x="730" y="250" width="13" height="13" rx="3" fill="#40c463"/><rect x="730" y="267" width="13" height="13" rx="3" fill="#30a14e"/><rect x="730" y="284" width="13" height="13" rx="3" fill="#216e39"/><rect x="730" y="301" width="13" height="13" rx="3" fill="#9be9a8"/><rect x="730" y="318" width="13" height="13" rx="3" fill="#40c463"/><rect x="730" y="335" width="13" height="13" rx="3" fill="#9be9a8"/><rect x="730" y="352" width="13" height="13" rx="3" fill="#40c463"/><rect x="747" y="250" width="13" height="13" rx="3" fill="#40c463"/><rect x="747" y="267" width="13" height="13" rx="3" fill="#216e39"/><rect x="747" y="284" width="13" height="13" rx="3" fill="#40c463"/><rect x="747" y="301" width="13" height="13" rx="3" fill="#ebedf0" stroke="#e5e5df" stroke-width="1"/><rect x="747" y="318" width="13" height="13" rx="3" fill="#9be9a8"/><rect x="747" y="335" width="13" height="13" rx="3" fill="#9be9a8"/><rect x="747" y="352" width="13" height="13" rx="3" fill="#40c463"/><rect x="764" y="250" width="13" height="13" rx="3" fill="#40c463"/><rect x="764" y="267" width="13" height="13" rx="3" fill="#30a14e"/><rect x="764" y="284" width="13" height="13" rx="3" fill="#40c463"/><rect x="764" y="301" width="13" height="13" rx="3" fill="#40c463"/><rect x="764" y="318" width="13" height="13" rx="3" fill="#9be9a8"/><rect x="764" y="335" width="13" height="13" rx="3" fill="#ebedf0" stroke="#e5e5df" stroke-width="1"/><rect x="764" y="352" width="13" height="13" rx="3" fill="#ebedf0" stroke="#e5e5df" stroke-width="1"/><rect x="781" y="250" width="13" height="13" rx="3" fill="#40c463"/><rect x="781" y="267" width="13" height="13" rx="3" fill="#30a14e"/><rect x="781" y="284" width="13" height="13" rx="3" fill="#40c463"/><rect x="781" y="301" width="13" height="13" rx="3" fill="#40c463"/><rect x="781" y="318" width="13" height="13" rx="3" fill="#216e39"/><rect x="781" y="335" width="13" height="13" rx="3" fill="#ebedf0" stroke="#e5e5df" stroke-width="1"/><rect x="781" y="352" width="13" height="13" rx="3" fill="#9be9a8"/><rect x="798" y="250" width="13" height="13" rx="3" fill="#9be9a8"/><rect x="798" y="267" width="13" height="13" rx="3" fill="#9be9a8"/><rect x="798" y="284" width="13" height="13" rx="3" fill="#9be9a8"/><rect x="798" y="301" width="13" height="13" rx="3" fill="#30a14e"/><rect x="798" y="318" width="13" height="13" rx="3" fill="#40c463"/><rect x="798" y="335" width="13" height="13" rx="3" fill="#9be9a8"/><rect x="798" y="352" width="13" height="13" rx="3" fill="#9be9a8"/><rect x="815" y="250" width="13" height="13" rx="3" fill="#40c463"/><rect x="815" y="267" width="13" height="13" rx="3" fill="#40c463"/><rect x="815" y="284" width="13" height="13" rx="3" fill="#40c463"/><rect x="815" y="301" width="13" height="13" rx="3" fill="#30a14e"/><rect x="815" y="318" width="13" height="13" rx="3" fill="#216e39"/><rect x="815" y="335" width="13" height="13" rx="3" fill="#40c463"/><rect x="815" y="352" width="13" height="13" rx="3" fill="#40c463"/><rect x="832" y="250" width="13" height="13" rx="3" fill="#9be9a8"/><rect x="832" y="267" width="13" height="13" rx="3" fill="#216e39"/><rect x="832" y="284" width="13" height="13" rx="3" fill="#40c463"/><rect x="832" y="301" width="13" height="13" rx="3" fill="#30a14e"/><rect x="832" y="318" width="13" height="13" rx="3" fill="#9be9a8"/><rect x="832" y="335" width="13" height="13" rx="3" fill="#9be9a8"/><rect x="832" y="352" width="13" height="13" rx="3" fill="#9be9a8"/><rect x="849" y="250" width="13" height="13" rx="3" fill="#216e39"/><rect x="849" y="267" width="13" height="13" rx="3" fill="#40c463"/><rect x="849" y="284" width="13" height="13" rx="3" fill="#40c463"/><rect x="849" y="301" width="13" height="13" rx="3" fill="#216e39"/><rect x="849" y="318" width="13" height="13" rx="3" fill="#216e39"/><rect x="849" y="335" width="13" height="13" rx="3" fill="#ebedf0" stroke="#e5e5df" stroke-width="1"/><rect x="849" y="352" width="13" height="13" rx="3" fill="#ebedf0" stroke="#e5e5df" stroke-width="1"/><rect x="866" y="250" width="13" height="13" rx="3" fill="#216e39"/><rect x="866" y="267" width="13" height="13" rx="3" fill="#40c463"/><rect x="866" y="284" width="13" height="13" rx="3" fill="#30a14e"/><rect x="866" y="301" width="13" height="13" rx="3" fill="#9be9a8"/><rect x="866" y="318" width="13" height="13" rx="3" fill="#40c463"/><rect x="866" y="335" width="13" height="13" rx="3" fill="#40c463"/><rect x="866" y="352" width="13" height="13" rx="3" fill="#ebedf0" stroke="#e5e5df" stroke-width="1"/><rect x="883" y="250" width="13" height="13" rx="3" fill="#216e39"/><rect x="883" y="267" width="13" height="13" rx="3" fill="#9be9a8"/><rect x="883" y="284" width="13" height="13" rx="3" fill="#30a14e"/><rect x="883" y="301" width="13" height="13" rx="3" fill="#30a14e"/><rect x="883" y="318" width="13" height="13" rx="3" fill="#9be9a8"/><rect x="883" y="335" width="13" height="13" rx="3" fill="#ebedf0" stroke="#e5e5df" stroke-width="1"/><rect x="883" y="352" width="13" height="13" rx="3" fill="#ebedf0" stroke="#e5e5df" stroke-width="1"/><rect x="900" y="250" width="13" height="13" rx="3" fill="#40c463"/><rect x="900" y="267" width="13" height="13" rx="3" fill="#216e39"/><rect x="900" y="284" width="13" height="13" rx="3" fill="#30a14e"/><rect x="900" y="301" width="13" height="13" rx="3" fill="#216e39"/><rect x="900" y="318" width="13" height="13" rx="3" fill="#40c463"/><rect x="900" y="335" width="13" height="13" rx="3" fill="#ebedf0" stroke="#e5e5df" stroke-width="1"/><rect x="900" y="352" width="13" height="13" rx="3" fill="#ebedf0" stroke="#e5e5df" stroke-width="1"/><rect x="917" y="250" width="13" height="13" rx="3" fill="#9be9a8"/><rect x="917" y="267" width="13" height="13" rx="3" fill="#9be9a8"/><rect x="917" y="284" width="13" height="13" rx="3" fill="#30a14e"/><rect x="917" y="301" width="13" height="13" rx="3" fill="#30a14e"/><rect x="917" y="318" width="13" height="13" rx="3" fill="#ebedf0" stroke="#e5e5df" stroke-width="1"/><rect x="917" y="335" width="13" height="13" rx="3" fill="#ebedf0" stroke="#e5e5df" stroke-width="1"/><rect x="917" y="352" width="13" height="13" rx="3" fill="#40c463"/><rect x="934" y="250" width="13" height="13" rx="3" fill="#30a14e"/><rect x="934" y="267" width="13" height="13" rx="3" fill="#216e39"/><rect x="934" y="284" width="13" height="13" rx="3" fill="#9be9a8"/><rect x="934" y="301" width="13" height="13" rx="3" fill="#40c463"/><rect x="934" y="318" width="13" height="13" rx="3" fill="#216e39"/><rect x="934" y="335" width="13" height="13" rx="3" fill="#9be9a8"/><rect x="934" y="352" width="13" height="13" rx="3" fill="#40c463"/><rect x="951" y="250" width="13" height="13" rx="3" fill="#216e39"/><rect x="951" y="267" width="13" height="13" rx="3" fill="#40c463"/><rect x="951" y="284" width="13" height="13" rx="3" fill="#40c463"/><rect x="951" y="301" width="13" height="13" rx="3" fill="#ebedf0" stroke="#e5e5df" stroke-width="1"/><rect x="951" y="318" width="13" height="13" rx="3" fill="#216e39"/><rect x="951" y="335" width="13" height="13" rx="3" fill="#9be9a8"/><rect x="951" y="352" width="13" height="13" rx="3" fill="#9be9a8"/><rect x="968" y="250" width="13" height="13" rx="3" fill="#216e39"/><rect x="968" y="267" width="13" height="13" rx="3" fill="#40c463"/><rect x="968" y="284" width="13" height="13" rx="3" fill="#30a14e"/><rect x="968" y="301" width="13" height="13" rx="3" fill="#216e39"/><rect x="968" y="318" width="13" height="13" rx="3" fill="#216e39"/><rect x="968" y="335" width="13" height="13" rx="3" fill="#30a14e"/><rect x="968" y="352" width="13" height="13" rx="3" fill="#40c463"/><rect x="985" y="250" width="13" height="13" rx="3" fill="#216e39"/><rect x="985" y="267" width="13" height="13" rx="3" fill="#30a14e"/><rect x="985" y="284" width="13" height="13" rx="3" fill="#9be9a8"/><rect x="985" y="301" width="13" height="13" rx="3" fill="#ebedf0" stroke="#e5e5df" stroke-width="1"/><rect x="985" y="318" width="13" height="13" rx="3" fill="#216e39"/><rect x="985" y="335" width="13" height="13" rx="3" fill="#9be9a8"/><rect x="985" y="352" width="13" height="13" rx="3" fill="#ebedf0" stroke="#e5e5df" stroke-width="1"/><rect x="1002" y="250" width="13" height="13" rx="3" fill="#40c463"/><rect x="1002" y="267" width="13" height="13" rx="3" fill="#216e39"/><rect x="1002" y="284" width="13" height="13" rx="3" fill="#9be9a8"/><rect x="1002" y="301" width="13" height="13" rx="3" fill="#9be9a8"/><rect x="1002" y="318" width="13" height="13" rx="3" fill="#216e39"/><rect x="1002" y="335" width="13" height="13" rx="3" fill="#40c463"/><rect x="1002" y="352" width="13" height="13" rx="3" fill="#40c463"/><rect x="1019" y="250" width="13" height="13" rx="3" fill="#9be9a8"/><rect x="1019" y="267" width="13" height="13" rx="3" fill="#9be9a8"/><rect x="1019" y="284" width="13" height="13" rx="3" fill="#ebedf0" stroke="#e5e5df" stroke-width="1"/><rect x="1019" y="301" width="13" height="13" rx="3" fill="#216e39"/><rect x="1019" y="318" width="13" height="13" rx="3" fill="#216e39"/><rect x="1019" y="335" width="13" height="13" rx="3" fill="#40c463"/><rect x="1019" y="352" width="13" height="13" rx="3" fill="#9be9a8"/><rect x="1036" y="250" width="13" height="13" rx="3" fill="#216e39"/><rect x="1036" y="267" width="13" height="13" rx="3" fill="#216e39"/><rect x="1036" y="284" width="13" height="13" rx="3" fill="#30a14e"/><rect x="1036" y="301" width="13" height="13" rx="3" fill="#30a14e"/><rect x="1036" y="318" width="13" height="13" rx="3" fill="#216e39"/><rect x="1036" y="335" width="13" height="13" rx="3" fill="#40c463"/><rect x="1036" y="352" width="13" height="13" rx="3" fill="#9be9a8"/>
<text x="923" y="396" font-family="-apple-system, BlinkMacSystemFont, Segoe UI, Inter, Roboto, Helvetica, Arial, sans-serif" font-size="11" fill="#6f6f68" font-weight="400" text-anchor="end">Less</text><rect x="931" y="387" width="11" height="11" rx="3" fill="#ebedf0" stroke="#e5e5df" stroke-width="1"/><rect x="947" y="387" width="11" height="11" rx="3" fill="#9be9a8"/><rect x="963" y="387" width="11" height="11" rx="3" fill="#40c463"/><rect x="979" y="387" width="11" height="11" rx="3" fill="#30a14e"/><rect x="995" y="387" width="11" height="11" rx="3" fill="#216e39"/><text x="1015" y="396" font-family="-apple-system, BlinkMacSystemFont, Segoe UI, Inter, Roboto, Helvetica, Arial, sans-serif" font-size="11" fill="#6f6f68" font-weight="400">More</text>
</svg>
